<svg width="21" height="25" viewBox="0 0 21 25" fill="none" xmlns="http://www.w3.org/2000/svg">
<path d="M19.938 12.4731C19.4249 11.8714 19.0106 11.1919 18.7109 10.4601C18.4856 9.8904 18.3719 9.28279 18.376 8.67017V8.4491C18.376 6.34434 17.5399 4.32581 16.0516 2.83752C14.5633 1.34924 12.5447 0.513184 10.4399 0.513184C8.33464 0.513184 6.31568 1.34947 4.82702 2.83813C3.33835 4.3268 2.50194 6.34588 2.50194 8.45117V8.67419C2.50609 9.28339 2.39303 9.88761 2.16893 10.4541C1.86912 11.1878 1.45424 11.8691 0.93993 12.4722C0.635143 12.981 0.433776 13.545 0.347279 14.1318C0.260782 14.7187 0.290901 15.3168 0.435902 15.892C0.580903 16.4671 0.837892 17.0081 1.19225 17.4838C1.54661 17.9595 1.99136 18.3606 2.50097 18.6642C2.50669 18.6688 2.51314 18.6725 2.52001 18.6752L2.57396 18.7062C2.70579 18.7752 2.84206 18.8353 2.98192 18.8861C3.03592 18.9071 3.09695 18.9291 3.16295 18.9521C3.35291 19.0227 3.54698 19.0818 3.74401 19.1292C3.78201 19.1371 3.81892 19.1482 3.85692 19.1532H3.86498L4.09203 19.2072C4.25103 19.2432 4.42297 19.2781 4.60997 19.3141L4.90197 19.3661C5.10197 19.4001 5.32297 19.4342 5.55797 19.4662C5.79297 19.4982 6.04398 19.5291 6.31298 19.5571C7.68371 19.6935 9.06048 19.7602 10.438 19.7571C11.238 19.7571 11.96 19.7452 12.615 19.7172C13.76 19.6672 14.692 19.5771 15.447 19.4691C15.77 19.4231 16.062 19.3691 16.322 19.3221C17.0414 19.2324 17.7377 19.0088 18.375 18.6631C18.8846 18.3598 19.3294 17.959 19.6838 17.4835C20.0383 17.0081 20.2955 16.4673 20.4407 15.8923C20.5858 15.3173 20.6161 14.7194 20.5299 14.1327C20.4436 13.546 20.2425 12.982 19.938 12.4731Z" fill="#D3D1D8"/>
<path d="M13.541 21.4401C12.552 21.0683 11.4956 20.9094 10.441 20.974C9.38641 20.9095 8.33008 21.0683 7.34105 21.4401C7.18463 21.5324 7.06027 21.6705 6.98497 21.8357C6.90967 22.001 6.88704 22.1855 6.92003 22.3641C7.08574 22.8722 7.38783 23.3251 7.79344 23.6732C8.19905 24.0213 8.69252 24.2513 9.21995 24.3381C10.0215 24.5553 10.8664 24.5553 11.668 24.3381C12.1955 24.2516 12.6891 24.0216 13.0947 23.6735C13.5004 23.3253 13.8025 22.8724 13.968 22.3641C14.0006 22.1848 13.977 21.9999 13.9006 21.8345C13.8242 21.6692 13.6986 21.5314 13.541 21.4401Z" fill="#D3D1D8"/>
</svg>
