<svg width="28" height="27" viewBox="0 0 28 27" fill="none" xmlns="http://www.w3.org/2000/svg">
<path d="M13.969 1.33203C10.8249 1.33203 7.80943 2.58108 5.58618 4.80432C3.36294 7.02757 2.11401 10.0429 2.11401 13.1871C2.11401 16.3312 3.36294 19.3466 5.58618 21.5698C7.80943 23.7931 10.8249 25.0421 13.969 25.0421C17.1131 25.0421 20.1286 23.7931 22.3518 21.5698C24.5751 19.3466 25.824 16.3312 25.824 13.1871C25.824 10.0429 24.5751 7.02757 22.3518 4.80432C20.1286 2.58108 17.1131 1.33203 13.969 1.33203ZM18.4031 9.68005L16.7161 15.423C16.6811 15.543 16.6163 15.6522 16.5281 15.7406C16.4398 15.829 16.3308 15.8938 16.2109 15.9291L10.4629 17.621C10.3333 17.6592 10.196 17.6616 10.0652 17.6279C9.93437 17.5941 9.81513 17.5255 9.72021 17.4294C9.6253 17.3332 9.55819 17.2131 9.52612 17.0818C9.49405 16.9506 9.4982 16.8132 9.53809 16.6841L11.2939 11.001C11.3298 10.8849 11.3933 10.7793 11.4792 10.6934C11.5652 10.6075 11.671 10.5439 11.7871 10.5081L17.4661 8.75708C17.5949 8.71739 17.732 8.7133 17.863 8.7453C17.994 8.7773 18.1139 8.84415 18.21 8.93878C18.306 9.03342 18.3747 9.15233 18.4087 9.28284C18.4427 9.41334 18.4408 9.55059 18.4031 9.68005Z" fill="#FE724C"/>
</svg>
