<svg width="21" height="24" viewBox="0 0 21 24" fill="none" xmlns="http://www.w3.org/2000/svg">
<path d="M18.849 4.71918C17.964 3.2728 16.7213 2.07868 15.2407 1.25214C13.7601 0.425592 12.0916 -0.00562874 10.396 6.34181e-05C8.70024 -0.00601582 7.0315 0.425067 5.55087 1.25165C4.07023 2.07823 2.82768 3.27253 1.94296 4.71918C1.2171 5.94666 0.750663 7.30993 0.572473 8.72479C0.394282 10.1397 0.508108 11.576 0.906945 12.9451C2.62395 18.8501 8.38987 22.6831 9.98287 23.6451C10.1071 23.7195 10.2491 23.7587 10.3939 23.7587C10.5386 23.7587 10.6807 23.7195 10.8049 23.6451C12.3989 22.6801 18.1639 18.8451 19.8809 12.9451C20.2805 11.5763 20.395 10.14 20.2175 8.72516C20.04 7.31029 19.5743 5.94691 18.849 4.71918ZM10.396 13.5482C9.49881 13.5479 8.63849 13.1913 8.00411 12.5569C7.36974 11.9226 7.01317 11.0622 7.0129 10.1651C7.01317 9.26796 7.36974 8.40763 8.00411 7.77326C8.63849 7.13888 9.49881 6.78243 10.396 6.78217C11.2933 6.78217 12.1538 7.13848 12.7884 7.77289C13.423 8.4073 13.7796 9.26778 13.7799 10.1651C13.7796 11.0624 13.423 11.9229 12.7884 12.5573C12.1538 13.1917 11.2933 13.5482 10.396 13.5482Z" fill="#D3D1D8"/>
</svg>
