<svg width="16" height="14" viewBox="0 0 16 14" fill="none" xmlns="http://www.w3.org/2000/svg">
<path d="M11.0549 1.09835e-08C10.34 0.00012472 9.63794 0.190537 9.02091 0.551683C8.40389 0.912829 7.8941 1.4317 7.54391 2.055C7.19363 1.43155 6.68369 0.912586 6.06648 0.55143C5.44926 0.190275 4.74702 -5.27909e-05 4.03191 1.09835e-08C2.93669 0.0591506 1.90643 0.53826 1.15545 1.33766C0.404471 2.13707 -0.00940679 3.19522 -9.01977e-05 4.292C-9.01977e-05 9.885 7.54391 13.787 7.54391 13.787C7.54391 13.787 15.0879 9.887 15.0879 4.292C15.0972 3.19506 14.6832 2.13676 13.932 1.33733C13.1808 0.537904 12.1503 0.0589022 11.0549 1.09835e-08V1.09835e-08Z" fill="white"/>
</svg>
